<svg xmlns="http://www.w3.org/2000/svg" xmlns:xlink="http://www.w3.org/1999/xlink"><symbol fill="none" viewBox="0 0 512 512" id="nuxt" xmlns="http://www.w3.org/2000/svg"><path d="M281.44 397.667h156.88c5.006 0 9.798-1.759 14.133-4.24 4.336-2.481 8.805-5.596 11.307-9.894 2.502-4.297 4.242-9.173 4.24-14.134-.002-4.962-1.734-9.836-4.24-14.131l-106-182.321c-2.502-4.297-5.559-7.413-9.893-9.894-4.335-2.48-10.542-4.24-15.547-4.24-5.005 0-9.799 1.76-14.133 4.24-4.335 2.481-7.392 5.597-9.894 9.894l-26.853 46.64-53.707-90.457c-2.504-4.296-5.557-8.823-9.893-11.303-4.336-2.481-9.127-2.827-14.133-2.827-5.006 0-9.798.346-14.134 2.827-4.335 2.48-8.802 7.007-11.306 11.303L46.827 355.268c-2.506 4.295-2.825 9.169-2.827 14.131-.002 4.961.325 9.836 2.827 14.134 2.502 4.297 6.97 7.413 11.306 9.894 4.336 2.481 9.127 4.24 14.134 4.24H171.2c39.201 0 67.734-17.585 87.627-50.88L306.88 263.4l25.44-43.813 77.733 132.853H306.88l-25.44 45.227ZM169.787 352.44h-69.254l103.174-178.08L256 263.4l-34.639 60.384c-13.21 21.603-28.272 28.656-51.574 28.656Z" fill="#00DC82"/></symbol><symbol class="biconify biconify--logos" viewBox="0 0 256 256" id="typescript" xmlns="http://www.w3.org/2000/svg"><path fill="#007ACC" d="M0 128v128h256V0H0z"/><path fill="#FFF" d="m56.612 128.85-.081 10.483h33.32v94.68h23.568v-94.68h33.321v-10.28c0-5.69-.122-10.444-.284-10.566-.122-.162-20.4-.244-44.983-.203l-44.74.122-.121 10.443Zm149.955-10.742c6.501 1.625 11.459 4.51 16.01 9.224 2.357 2.52 5.851 7.111 6.136 8.208.08.325-11.053 7.802-17.798 11.988-.244.162-1.22-.894-2.317-2.52-3.291-4.795-6.745-6.867-12.028-7.233-7.76-.528-12.759 3.535-12.718 10.321 0 1.992.284 3.17 1.097 4.795 1.707 3.536 4.876 5.649 14.832 9.956 18.326 7.883 26.168 13.084 31.045 20.48 5.445 8.249 6.664 21.415 2.966 31.208-4.063 10.646-14.14 17.879-28.323 20.276-4.388.772-14.79.65-19.504-.203-10.28-1.828-20.033-6.908-26.047-13.572-2.357-2.6-6.949-9.387-6.664-9.874.122-.163 1.178-.813 2.356-1.504 1.138-.65 5.446-3.129 9.509-5.485l7.355-4.267 1.544 2.276c2.154 3.29 6.867 7.801 9.712 9.305 8.167 4.307 19.383 3.698 24.909-1.26 2.357-2.153 3.332-4.388 3.332-7.68 0-2.966-.366-4.266-1.91-6.501-1.99-2.845-6.054-5.242-17.595-10.24-13.206-5.69-18.895-9.224-24.096-14.832-3.007-3.25-5.852-8.452-7.03-12.8-.975-3.617-1.22-12.678-.447-16.335 2.723-12.76 12.353-21.659 26.25-24.3 4.51-.853 14.994-.528 19.424.569Z"/></symbol><symbol class="ciconify ciconify--logos" viewBox="0 0 256 257" id="vite" xmlns="http://www.w3.org/2000/svg"><defs><linearGradient id="ca" x1="-.828%" x2="57.636%" y1="7.652%" y2="78.411%"><stop offset="0%" stop-color="#41D1FF"/><stop offset="100%" stop-color="#BD34FE"/></linearGradient><linearGradient id="cb" x1="43.376%" x2="50.316%" y1="2.242%" y2="89.03%"><stop offset="0%" stop-color="#FFEA83"/><stop offset="8.333%" stop-color="#FFDD35"/><stop offset="100%" stop-color="#FFA800"/></linearGradient></defs><path fill="url(#ca)" d="M255.153 37.938 134.897 252.976c-2.483 4.44-8.862 4.466-11.382.048L.875 37.958c-2.746-4.814 1.371-10.646 6.827-9.67l120.385 21.517a6.537 6.537 0 0 0 2.322-.004l117.867-21.483c5.438-.991 9.574 4.796 6.877 9.62Z"/><path fill="url(#cb)" d="M185.432.063 96.44 17.501a3.268 3.268 0 0 0-2.634 3.014l-5.474 92.456a3.268 3.268 0 0 0 3.997 3.378l24.777-5.718c2.318-.535 4.413 1.507 3.936 3.838l-7.361 36.047c-.495 2.426 1.782 4.5 4.151 3.78l15.304-4.649c2.372-.72 4.652 1.36 4.15 3.788l-11.698 56.621c-.732 3.542 3.979 5.473 5.943 2.437l1.313-2.028 72.516-144.72c1.215-2.423-.88-5.186-3.54-4.672l-25.505 4.922c-2.396.462-4.435-1.77-3.759-4.114l16.646-57.705c.677-2.35-1.37-4.583-3.769-4.113Z"/></symbol><symbol viewBox="0 0 261.76 226.69" id="vue" xmlns="http://www.w3.org/2000/svg"><path d="m161.096.001-30.225 52.351L100.647.001H-.005l130.877 226.688L261.749.001z" fill="#41b883"/><path d="m161.096.001-30.225 52.351L100.647.001H52.346l78.526 136.01L209.398.001z" fill="#34495e"/></symbol></svg>